<?xml version="1.0" encoding="utf-8"?>
<!-- Generator: Adobe Illustrator 21.1.0, SVG Export Plug-In . SVG Version: 6.00 Build 0)  -->
<svg version="1.1" id="Layer_1" xmlns="http://www.w3.org/2000/svg" xmlns:xlink="http://www.w3.org/1999/xlink" x="0px" y="0px"
	 viewBox="0 0 452.2 120.3" style="enable-background:new 0 0 452.2 120.3;" xml:space="preserve">
<g>
	<path style="fill:#333086;" d="M56.5,71C56.5,71,56.5,71,56.5,71c-0.1-4.8-1.6-8.6-4.2-11.7c-2.8-3-7.2-5-12.7-5
		c-5.9,0-10.8,2.1-13.7,5.3c-2.5,2.9-4.1,7.2-4.4,11.3c0,0,0,0.1,0.1,0.1L56.5,71z M68.5,100.7c0,3.2-2.4,5.5-6.9,7.5
		c-5.8,2.5-12.8,4-20.2,4c-11.2,0-20.4-3.7-26.6-10.3c-5.9-6.2-9.3-15.1-9.3-25.5c0-9.7,3.4-18.3,9.3-24.5c5.6-5.9,14-9.6,24.6-9.6
		c10.5,0,18.5,3.8,23.8,9.2c6,6.3,8.1,14.2,8.1,21.5c0,4.7-2.8,8.4-7.7,8.4l-42.1,0c0,0-0.1,0-0.1,0.1c0.5,4.8,2.2,9.1,5,12.2
		c3.7,4.3,9.1,6.6,15.9,6.6c5.3,0,9.9-1.3,13.4-2.9c3.2-1.5,4.9-2.8,7.1-2.8C66.1,94.5,68.5,97.4,68.5,100.7"/>
	<path style="fill:#333086;" d="M116.9,97.3l0-17.2c0,0,0-0.1-0.1-0.1C100.9,80.9,90,83.9,90,91.7c0,6.5,6.5,9.4,13.4,9.4
		C107.9,101.1,112.6,99.8,116.9,97.3 M88.6,74.7c8.2-3.4,19.1-4.4,28.3-5.2c0,0,0.1,0,0.1-0.1v-1.7c0-4.7-0.9-7.7-2.8-10
		c-2.4-2.8-5.9-3.8-9.9-3.8c-5,0-9.2,1.3-12.5,2.8c-3.9,1.7-5.6,2.6-8.1,2.3c-2-0.2-4.1-2.1-4.4-4.1c-0.9-4.7,3-7,7.7-8.9
		c5.5-2.2,12.1-3.7,19-3.7c6.6,0,14.9,1.3,20.5,7.5c3.5,4,5.6,9.4,5.6,18v37c0,4.1-3.5,7.4-7.5,7.4c-3.1,0-5.7-1.6-6.9-4.1
		c0,0,0,0-0.1,0c-6,3.2-11.9,4.1-18.7,4.1c-12,0-23.2-7.1-23.2-20.2C75.6,83,81,77.8,88.6,74.7"/>
	<path style="fill:#333086;" d="M184.5,57.6c-4.7,0-9-3-15.9-3c-6.3,0-10.5,1.9-10.5,6.3c0,3.8,3,5.9,6.9,7.7
		c4.6,1.9,10.3,3.5,14.9,5.8c8.7,4.3,12.1,9.4,12.1,17.1c0,12.3-10.2,20.7-26.3,20.7c-9.7,0-25.1-2.2-25.1-11.2
		c0-3.1,2.6-5.8,5.7-5.9c5.6-0.1,7.9,5.3,18.3,5.3c6.8,0,11.4-2.4,11.4-7.5c0-4.4-3.2-6.5-7.7-8.6c-4.1-1.9-10.2-3.4-15.2-5.8
		c-7.2-3.4-11.1-8.9-11.1-17.3c0-11.8,9.2-19,25.5-19c11.8,0,22.7,2.4,22.7,9.3C190.4,54.9,187.7,57.6,184.5,57.6"/>
	<path style="fill:#333086;" d="M206.1,43.5l0-9.9c0-4.1,3.1-7.6,7.1-7.8c4.3-0.2,8.1,3.1,8.1,7.4v10.4c0,0,0,0.1,0.1,0.1h16.8
		c3.1,0,5.8,2.7,5.8,6.1c0,3.3-2.7,5.9-5.8,5.9h-16.8c0,0-0.1,0-0.1,0.1v32.1c0,7.8,2.7,11.8,9.4,11.8c6.5,0,8.6-4.9,13-4.9
		c3.8,0,5.8,2.8,5.8,6.1c0,3.7-3.7,6.6-8.1,8.7c-4,1.8-8.7,2.8-13.4,2.8c-15.9,0-21.8-10.3-21.8-23.2V55.6c0,0,0-0.1-0.1-0.1l-5.2,0
		c-3,0-5.9-2.5-6.1-5.5c-0.2-3.6,2.4-6.4,5.7-6.4L206.1,43.5C206.1,43.6,206.1,43.6,206.1,43.5z"/>
	<path style="fill:#333086;" d="M255.8,16.7c0-3.9,2.9-7.4,6.9-7.7c4.6-0.4,8.2,3,8.2,7.4l0,88c0,3.8-2.7,7.3-6.5,7.7
		c-4.6,0.6-8.5-2.9-8.5-7.3L255.8,16.7z"/>
	<path style="fill:#333086;" d="M290.3,42.2c4.3,0,7.5,3.4,7.5,7.4v55.2c0,4.1-3.5,7.4-7.5,7.4c-4.3,0-7.5-3.2-7.5-7.4V49.6
		C282.8,45.6,286,42.2,290.3,42.2"/>
	<path style="fill:#333086;" d="M282.1,23.9c0-4.8,4.1-8.6,9.2-8.1c3.8,0.4,6.9,3.4,7.2,7.2c0.5,5.1-3.3,9.2-8.1,9.2
		C285.7,32.1,282.1,28.6,282.1,23.9"/>
	<polygon style="fill:#333086;" points="386.9,95.1 387.5,94.6 421.8,68.5 	"/>
	<path style="fill:#333086;" d="M400.5,104.9v-13c0,0-0.1-0.1-0.1,0l-13.8,10.5c-0.1,0-1.1,0.9-1.1,2.3l0,0.4c0.1,4,3.3,7.2,7.5,7.2
		C396.9,112.2,400.5,109,400.5,104.9"/>
	<path style="fill:#333086;" d="M421.5,68.7l18.4-14.4c0,0,0,0,0,0c1.4-1.4,2.2-3.3,2.2-5.1c0.1-3.8-2.7-7.6-6.9-7.7
		c-1.9,0-3.9,0.9-5.3,2.3l-16.2,18.6l-27.3,31.5l-0.9,1l0,0c-0.2,0.2-0.2,0.6,0,0.8c0.2,0.2,0.6,0.2,0.8,0l2.8-2.3L421.5,68.7z"/>
	<path style="fill:#333086;" d="M309.6,50c0-3.9,2.9-7.4,6.9-7.7c4.6-0.4,8.2,3,8.2,7.4v3c4.9-6.8,12.5-10.3,21.8-10.3
		c7.7,0,14.6,1.9,19.5,6.3c5,4.4,7.8,11.7,7.8,21.8v34.4c0,4.1-3.5,7.4-7.5,7.4c-4.3,0-7.7-3.2-7.7-7.4V74.2
		c0-6.1-0.9-11.5-4.3-15.1c-2.4-2.4-5.8-3.8-10.8-3.8c-6.8,0-12.1,3.1-15.3,8.9c-2.5,4.6-3.5,10.2-3.5,15.6v25.1c0,4.9-5,8.6-9.8,7
		c-3.2-1-5.2-4.2-5.2-7.5V50z"/>
	<path style="fill:#333086;" d="M444.3,104.9c0-1.3-0.4-2.7-1.3-3.8l-19.6-24.2c-1.1-1.1-2.2-0.9-2.8-0.5l-9.8,7.5c0,0,0,0.1,0,0.1
		l19.9,25.1c1.5,1.9,3.7,3.2,6,3.2C440.6,112.2,444.3,109,444.3,104.9"/>
	<path style="fill:#333086;" d="M400.5,66.4V16.5c0-4.1-3.2-7.4-7.5-7.4c-4.3,0-7.5,3.2-7.5,7.4v50.7v17.6c0.1,0.6,0.4,1.3,1.5,0
		l11.3-13.1l0.6-0.7C400.6,68.9,400.5,66.4,400.5,66.4L400.5,66.4z"/>
</g>
</svg>
