<svg xmlns="http://www.w3.org/2000/svg" height="800" width="1200" viewBox="-22.65375 -37.75625 196.3325 226.5375"><path d="M0 151.025h151.025V0H0z" fill="#330072"/><path d="M29.354 129.71c0-2.217-.623-4.57-2.44-6.476-1.595-1.596-3.993-2.749-7.142-2.749-3.192 0-5.72 1.108-7.404 2.883-1.775 1.864-2.793 4.434-2.793 7.361 0 3.149 1.019 5.81 2.793 7.67 1.864 1.996 4.61 3.106 7.983 3.106 2.216 0 4.344-.443 6.074-1.197 1.376-.621 2.085-1.286 2.085-2.263 0-.973-.71-1.86-1.684-1.86-.665 0-1.154.4-2.131.84a9.644 9.644 0 01-4.035.888c-2.04 0-3.682-.709-4.789-1.996-.843-.932-1.375-2.215-1.509-3.68h12.685c1.463 0 2.307-1.108 2.307-2.527m-14.992-.577c.09-1.24.58-2.526 1.333-3.415.885-.976 2.348-1.594 4.124-1.594 1.64 0 2.97.618 3.813 1.506.8.93 1.242 2.084 1.286 3.503H14.363zm31.528-6.385c-1.686-1.866-4.168-2.263-6.166-2.263-2.083 0-4.078.444-5.718 1.108-1.288.532-2.353 1.155-2.353 2.303 0 .935.71 1.645 1.641 1.645.62 0 1.154-.266 2.175-.71 1.02-.445 2.26-.843 3.77-.843 1.197 0 2.26.31 2.97 1.152.578.71.842 1.596.842 3.015v.533c-2.748.222-6.03.532-8.515 1.55-2.262.934-3.902 2.49-3.902 5.193 0 3.948 3.372 6.074 6.963 6.074 2.04 0 3.814-.266 5.632-1.24.354.754 1.154 1.24 2.083 1.24 1.199 0 2.262-.975 2.262-2.217v-11.133c0-2.57-.62-4.21-1.683-5.407m-2.84 14.277c-1.287.758-2.705 1.155-4.034 1.155-2.088 0-4.036-.887-4.036-2.839 0-2.35 3.28-3.238 8.07-3.505v5.19zm20.315-11.929c-1.42 0-2.707-.887-4.79-.887-1.907 0-3.148.578-3.148 1.91 0 1.152.886 1.774 2.083 2.303 1.375.579 3.105 1.065 4.48 1.73 2.616 1.282 3.636 2.84 3.636 5.146 0 3.68-3.06 6.208-7.893 6.208-2.927 0-7.54-.665-7.54-3.372 0-.974.8-1.77 1.774-1.77 1.641 0 2.351 1.594 5.454 1.594 2.041 0 3.416-.71 3.416-2.262 0-1.329-.975-1.953-2.306-2.573-1.241-.575-3.061-1.02-4.569-1.73-2.171-1.017-3.325-2.662-3.325-5.187 0-3.548 2.75-5.721 7.671-5.721 3.549 0 6.83.708 6.83 2.795 0 1.018-.798 1.816-1.773 1.816m6.497-4.213v-3.147c0-1.241 1.02-2.216 2.26-2.216 1.242 0 2.307.975 2.307 2.216v3.147h5.056c.93 0 1.729.8 1.729 1.818 0 .977-.799 1.775-1.729 1.775H74.43v9.669c0 2.35.799 3.546 2.838 3.546 1.952 0 2.572-1.463 3.905-1.463 1.152 0 1.728.843 1.728 1.817 0 1.11-1.108 1.992-2.44 2.618a10.053 10.053 0 01-4.035.842c-4.787 0-6.563-3.105-6.563-6.96v-10.07h-1.684c-.976 0-1.73-.797-1.73-1.774 0-1.019.754-1.818 1.73-1.818h1.684zm14.947-8.159c0-1.243 1.018-2.217 2.26-2.217 1.286 0 2.26.974 2.26 2.216v26.564c0 1.243-1.018 2.22-2.26 2.22-1.242 0-2.26-.977-2.26-2.22zm10.355 7.761c1.286 0 2.262 1.02 2.262 2.216v16.587c0 1.242-1.064 2.217-2.262 2.217-1.286 0-2.262-.975-2.262-2.217V122.7c0-1.196.975-2.216 2.262-2.216m-2.461-5.528c0-1.37 1.082-2.451 2.494-2.451 1.37 0 2.45 1.08 2.45 2.451 0 1.415-1.08 2.494-2.45 2.494-1.412 0-2.494-1.079-2.494-2.494m31.499 21.408l.175-.136 10.296-7.842-10.471 7.978zm4.064 2.935v-3.944l-4.176 3.19c-.014.015-.32.279-.336.69l-.005.114c.025 1.216.988 2.163 2.256 2.163 1.196 0 2.261-.973 2.261-2.214" fill="#fff"/><path d="M134.582 128.444l5.537-4.339c.411-.418.648-.981.658-1.55.022-1.131-.807-2.282-2.06-2.306-.585-.014-1.173.259-1.585.679l-4.855 5.576-8.194 9.464-.281.31-.006.004a.174.174 0 00.004.246.174.174 0 00.245.002l.832-.675 9.705-7.411zm-33.605-5.732c0-1.242 1.018-2.217 2.259-2.217 1.286 0 2.262.975 2.262 2.217v.886c1.463-2.038 3.77-3.103 6.564-3.103 2.306 0 4.39.575 5.852 1.908 1.508 1.328 2.353 3.5 2.353 6.563v10.332c0 1.24-1.065 2.216-2.263 2.216-1.286 0-2.305-.975-2.305-2.215v-9.225c0-1.82-.266-3.46-1.287-4.525-.709-.71-1.729-1.153-3.236-1.153-2.04 0-3.64.933-4.613 2.661-.755 1.374-1.065 3.059-1.065 4.702v7.54c0 1.24-1.064 2.214-2.262 2.214-1.24 0-2.26-.975-2.26-2.215v-16.586zm40.459 16.587c0-.4-.13-.8-.397-1.155l-5.878-7.268c-.326-.342-.648-.255-.84-.149l-2.952 2.257 5.989 7.555c.443.577 1.107.973 1.817.973 1.153 0 2.261-.973 2.261-2.213m-13.169-11.566v-14.997c0-1.242-.977-2.213-2.261-2.213-1.285 0-2.261.97-2.261 2.213v20.543c.018.187.108.396.46-.013l3.41-3.94.18-.217c.508-.619.472-1.375.472-1.375v-.001z" fill="#fff"/></svg>